<mxfile host="app.diagrams.net" modified="2023-10-27T01:41:36.972Z" agent="Mozilla/5.0 (Windows NT 10.0; Win64; x64) AppleWebKit/537.36 (KHTML, like Gecko) Chrome/118.0.0.0 Safari/537.36" etag="OhhdMTC9hVPwrAg0GDjI" version="21.7.5" type="github">
  <diagram name="第 1 页" id="bYznnCXSPKhDuvGlpPiA">
    <mxGraphModel dx="1050" dy="1699" grid="1" gridSize="10" guides="1" tooltips="1" connect="1" arrows="1" fold="1" page="1" pageScale="1" pageWidth="827" pageHeight="1169" math="0" shadow="0">
      <root>
        <mxCell id="0" />
        <mxCell id="1" parent="0" />
        <mxCell id="L6jhAVM9qWBBEi5SIbLK-1" value="你把我删了？" style="rounded=0;whiteSpace=wrap;html=1;fillColor=#f5f5f5;fontColor=#333333;strokeColor=#666666;" vertex="1" parent="1">
          <mxGeometry x="130" y="290" width="540" height="60" as="geometry" />
        </mxCell>
        <mxCell id="L6jhAVM9qWBBEi5SIbLK-6" value="分手，删除。&lt;br&gt;为啥要疑问？" style="ellipse;shape=cloud;whiteSpace=wrap;html=1;fillColor=#ffe6cc;strokeColor=#d79b00;" vertex="1" parent="1">
          <mxGeometry x="30" y="90" width="120" height="80" as="geometry" />
        </mxCell>
        <mxCell id="L6jhAVM9qWBBEi5SIbLK-7" value="觉得没必要删除？" style="ellipse;shape=cloud;whiteSpace=wrap;html=1;fillColor=#e1d5e7;strokeColor=#9673a6;" vertex="1" parent="1">
          <mxGeometry x="200" y="90" width="120" height="80" as="geometry" />
        </mxCell>
        <mxCell id="L6jhAVM9qWBBEi5SIbLK-10" value="" style="shape=flexArrow;endArrow=classic;html=1;rounded=0;" edge="1" parent="1">
          <mxGeometry width="50" height="50" relative="1" as="geometry">
            <mxPoint x="280" y="80" as="sourcePoint" />
            <mxPoint x="370" y="30" as="targetPoint" />
          </mxGeometry>
        </mxCell>
        <mxCell id="L6jhAVM9qWBBEi5SIbLK-11" value="受到伤害？" style="ellipse;shape=cloud;whiteSpace=wrap;html=1;fillColor=#f8cecc;gradientColor=#ea6b66;strokeColor=#b85450;" vertex="1" parent="1">
          <mxGeometry x="360" y="-50" width="120" height="80" as="geometry" />
        </mxCell>
        <mxCell id="L6jhAVM9qWBBEi5SIbLK-12" value="你受伤害？" style="shape=callout;whiteSpace=wrap;html=1;perimeter=calloutPerimeter;fillColor=#d5e8d4;gradientColor=#97d077;strokeColor=#82b366;" vertex="1" parent="1">
          <mxGeometry x="390" y="-140" width="120" height="80" as="geometry" />
        </mxCell>
        <mxCell id="L6jhAVM9qWBBEi5SIbLK-13" value="不想完全断" style="ellipse;shape=cloud;whiteSpace=wrap;html=1;fillColor=#ffcd28;strokeColor=#d79b00;gradientColor=#ffa500;" vertex="1" parent="1">
          <mxGeometry x="390" y="90" width="120" height="80" as="geometry" />
        </mxCell>
        <mxCell id="L6jhAVM9qWBBEi5SIbLK-14" value="第一种：假性分手，等你挽回" style="rounded=0;whiteSpace=wrap;html=1;" vertex="1" parent="1">
          <mxGeometry x="30" y="500" width="120" height="60" as="geometry" />
        </mxCell>
        <mxCell id="L6jhAVM9qWBBEi5SIbLK-16" value="第二种：感性和理智的博弈" style="rounded=0;whiteSpace=wrap;html=1;" vertex="1" parent="1">
          <mxGeometry x="200" y="500" width="120" height="60" as="geometry" />
        </mxCell>
      </root>
    </mxGraphModel>
  </diagram>
</mxfile>
